<svg width="16" height="24" viewBox="0 0 16 24" fill="none" xmlns="http://www.w3.org/2000/svg">
<path d="M7.29372 0.614655C4.52384 0.614655 2.24445 2.89404 2.24445 5.66393C2.24445 7.00559 2.79266 8.23184 3.6871 9.14071C1.47985 10.5834 0.0804749 13.0503 0.0804749 15.7625C0.0804749 20.1337 3.64382 23.6971 8.01505 23.6971C10.5541 23.6971 13.0643 23.0334 15.2283 21.7639L13.7856 19.2681C12.0256 20.278 10.0348 20.8118 8.01505 20.8118C5.21631 20.8118 2.96577 18.5756 2.96577 15.7625C2.96321 14.6513 3.32831 13.5705 4.00416 12.6885C4.68001 11.8065 5.62865 11.1729 6.70224 10.8863L14.2184 8.86661L13.4683 6.0823L7.04847 7.8279C5.96649 7.68364 5.12975 6.7892 5.12975 5.66393C5.12975 4.4521 6.0819 3.49995 7.29372 3.49995C7.66881 3.49995 8.01505 3.60094 8.37571 3.78848L9.81836 1.2927C9.05376 0.845478 8.17374 0.614655 7.29372 0.614655Z" fill="url(#paint0_linear_7_341)"/>
<defs>
<linearGradient id="paint0_linear_7_341" x1="7.65439" y1="0.614655" x2="7.65439" y2="23.6971" gradientUnits="userSpaceOnUse">
<stop stop-color="#E8B33F"/>
<stop offset="1" stop-color="#FF8A00"/>
</linearGradient>
</defs>
</svg>
