<svg width="28" height="23" viewBox="0 0 28 23" fill="none" xmlns="http://www.w3.org/2000/svg">
<path d="M8.46812 8.34584H19.5075C19.8387 8.34584 20.1699 8.45624 20.3907 8.45624C20.5011 8.12505 20.6115 7.68348 20.6115 7.35229C20.6115 5.91717 19.9491 4.59244 18.7348 3.81968L13.9878 0.618256L9.24088 3.70929C8.13694 4.59244 7.36418 5.91717 7.36418 7.35229C7.36418 7.79387 7.47458 8.12505 7.58497 8.45624C7.80576 8.45624 8.13694 8.34584 8.46812 8.34584ZM27.2351 7.2419C27.2351 6.02757 25.0272 3.93008 25.0272 3.93008C25.0272 3.93008 22.8194 6.02757 22.8194 7.2419C22.8194 8.01466 23.2609 8.78742 23.9233 9.1186V13.8655H21.7154V11.6577C21.7154 10.4433 20.7219 9.44978 19.5075 9.44978H8.46812C7.25379 9.44978 6.26024 10.4433 6.26024 11.6577V13.8655H4.05236V9.1186C4.71473 8.78742 5.1563 8.01466 5.1563 7.2419C5.1563 6.02757 2.94842 3.93008 2.94842 3.93008C2.94842 3.93008 0.74054 6.02757 0.74054 7.2419C0.74054 8.01466 1.18212 8.78742 1.84448 9.1186V22.6971H11.7799V18.2813C11.7799 17.067 12.7735 16.0734 13.9878 16.0734C15.2022 16.0734 16.1957 17.067 16.1957 18.2813V22.6971H26.1312V9.1186C26.7935 8.78742 27.2351 8.01466 27.2351 7.2419Z" fill="url(#paint0_linear_7_339)"/>
<defs>
<linearGradient id="paint0_linear_7_339" x1="13.9878" y1="0.618256" x2="13.9878" y2="22.6971" gradientUnits="userSpaceOnUse">
<stop stop-color="#E8B33F"/>
<stop offset="1" stop-color="#FF8A00"/>
</linearGradient>
</defs>
</svg>
