<svg width="70" height="70" viewBox="0 0 70 70" fill="none" xmlns="http://www.w3.org/2000/svg">
<path d="M25.8038 35.3559C25.8037 28.1623 28.6511 21.2611 33.7239 16.1606C38.7966 11.0601 45.6821 8.1749 52.8756 8.13566C48.0086 5.07027 42.4088 3.36585 36.6593 3.19992C30.9099 3.03398 25.2211 4.4126 20.1854 7.19218C15.1498 9.97177 10.9515 14.0507 8.02775 19.004C5.10405 23.9574 3.56189 29.604 3.56189 35.3559C3.56189 41.1078 5.10405 46.7544 8.02775 51.7078C10.9515 56.6611 15.1498 60.74 20.1854 63.5196C25.2211 66.2992 30.9099 67.6778 36.6593 67.5119C42.4088 67.3459 48.0086 65.6415 52.8756 62.5761C45.6821 62.5369 38.7966 59.6517 33.7239 54.5512C28.6511 49.4507 25.8037 42.5495 25.8038 35.3559Z" stroke="black" stroke-width="1.00417" stroke-linecap="round" stroke-linejoin="round"/>
<path d="M52.3309 20.707L56.8346 29.665H65.7925L59.0617 36.5938L61.1898 46.492L52.3309 41.5429L43.8678 46.492L45.6495 36.5938L38.9187 29.665H47.8766L52.3309 20.707Z" stroke="black" stroke-width="1.50626" stroke-linecap="round" stroke-linejoin="round"/>
</svg>
