<svg width="23" height="27" viewBox="0 0 23 27" fill="none" xmlns="http://www.w3.org/2000/svg">
<path d="M3.7201 0.611084C2.0692 0.611084 0.709351 1.97094 0.709351 3.62183V23.6935C0.709351 25.3444 2.0692 26.7042 3.7201 26.7042H22.7882V0.611084H3.7201ZM3.7201 2.61825H20.781V20.6827H3.7201C3.37717 20.687 3.03759 20.7509 2.71652 20.8714V3.62183C2.71652 3.0538 3.15207 2.61825 3.7201 2.61825ZM3.7201 3.62183V19.6792H19.7774V3.62183H3.7201ZM5.72726 5.629H17.7703V17.672H5.72726V5.629ZM11.7488 6.63258C11.1968 6.63258 10.7452 7.08419 10.7452 7.63616C10.7452 8.18813 11.1968 8.63974 11.7488 8.63974C12.3007 8.63974 12.7523 8.18813 12.7523 7.63616C12.7523 7.08419 12.3007 6.63258 11.7488 6.63258ZM11.7488 8.63974H8.73801V14.6612H14.7595V8.63974H11.7488ZM14.7595 11.6505C14.7595 12.2025 15.2111 12.6541 15.7631 12.6541C16.3151 12.6541 16.7667 12.2025 16.7667 11.6505C16.7667 11.0985 16.3151 10.6469 15.7631 10.6469C15.2111 10.6469 14.7595 11.0985 14.7595 11.6505ZM11.7488 14.6612C11.1968 14.6612 10.7452 15.1129 10.7452 15.6648C10.7452 16.2168 11.1968 16.6684 11.7488 16.6684C12.3007 16.6684 12.7523 16.2168 12.7523 15.6648C12.7523 15.1129 12.3007 14.6612 11.7488 14.6612ZM8.73801 11.6505C8.73801 11.0985 8.2864 10.6469 7.73443 10.6469C7.18246 10.6469 6.73085 11.0985 6.73085 11.6505C6.73085 12.2025 7.18246 12.6541 7.73443 12.6541C8.2864 12.6541 8.73801 12.2025 8.73801 11.6505ZM10.7452 10.6469H12.7523V12.6541H10.7452V10.6469ZM3.7201 22.6899H20.781V24.6971H3.7201C3.15207 24.6971 2.71652 24.2615 2.71652 23.6935C2.71652 23.1255 3.15207 22.6899 3.7201 22.6899Z" fill="url(#paint0_linear_7_315)"/>
<defs>
<linearGradient id="paint0_linear_7_315" x1="11.7488" y1="0.611084" x2="11.7488" y2="26.7042" gradientUnits="userSpaceOnUse">
<stop stop-color="#E8B33F"/>
<stop offset="1" stop-color="#FF8A00"/>
</linearGradient>
</defs>
</svg>
