<svg width="113" height="112" viewBox="0 0 113 112" fill="none" xmlns="http://www.w3.org/2000/svg">
<path d="M54.6894 31.598C60.5134 24.9246 65.8124 19.628 63.3251 16.9446C60.8378 14.2613 20.5971 29.2016 22.8674 33.103C24.2208 35.427 60.1751 61.5206 63.7218 63.6183C67.8868 66.0823 74.5788 63.1983 73.9884 58.6156L68.5588 16.59C68.5588 16.59 71.3074 20.2813 72.1568 22.8316M82.3628 61.8496C81.7748 57.2693 76.9331 19.8216 76.9331 19.8216C76.9331 19.8216 79.6818 23.513 80.5311 26.0656" stroke="black" stroke-width="2.33333" stroke-linecap="round" stroke-linejoin="round"/>
<path d="M66.7269 79.03C66.7269 64.5213 61.8502 32.3376 61.8502 32.3376C61.8502 32.3376 64.5989 36.0266 65.4505 38.5793M51.9965 33.943C51.1472 31.3903 48.4009 27.699 48.4009 27.699C48.4009 27.699 49.7845 44.5176 57.8299 47.8543C36.2559 37.4033 25.9869 71.603 16.6652 61.593C10.0129 54.453 21.9619 44.4196 21.9619 44.4196" stroke="black" stroke-width="2.33333" stroke-linecap="round" stroke-linejoin="round"/>
<path d="M88.9708 32.7367C88.1191 30.1863 85.3728 26.495 85.3728 26.495C85.3728 26.495 90.1001 68.25 91.1081 79.03C91.5864 84.1656 82.0688 86.52 78.5361 77.8867C75.0034 69.2533 78.2421 66.7963 80.4004 66.7963C82.5588 66.7963 86.0938 73.9923 80.4004 77.329C74.7071 80.6656 65.2221 83.0876 62.3451 86.422C59.4681 89.7563 54.4281 97.412 51.0914 97.412C47.7548 97.412 41.2144 93.8163 48.6718 79.03M97.2144 72.6833C96.6241 65.03 92.6341 34.02 92.6341 34.02C92.6341 34.02 95.3828 37.709 96.2321 40.2617M33.1504 20.8693C37.1731 18.3657 45.4658 16.7977 49.7848 13.412M21.4558 63.4503C16.0914 69.3467 17.5964 81.3166 23.8801 79.3566C26.2251 78.624 29.0484 73.7473 33.7571 71.638C41.6601 68.1006 51.7681 66.2947 51.1591 60.648C50.3751 53.354 43.3751 49.1097 43.3751 49.1097" stroke="black" stroke-width="2.33333" stroke-linecap="round" stroke-linejoin="round"/>
<path d="M60.7421 67.711C57.3891 66.2294 56.2924 64.5214 56.2924 64.5214C59.0084 70.5881 61.1014 74.284 61.1691 77.196C61.2367 80.108 46.2194 89.4134 39.7724 89.4134C32.2684 89.4134 26.7757 84.0187 28.9084 75.0634M24.1484 34.3817C19.2157 36.6684 16.1567 47.4881 19.9181 46.3961" stroke="black" stroke-width="2.33333" stroke-linecap="round" stroke-linejoin="round"/>
<path d="M56.5 106.167C84.2063 106.167 106.667 83.7063 106.667 56C106.667 28.2938 84.2063 5.83337 56.5 5.83337C28.7937 5.83337 6.33331 28.2938 6.33331 56C6.33331 83.7063 28.7937 106.167 56.5 106.167Z" stroke="black" stroke-width="2.33333" stroke-linecap="round" stroke-linejoin="round"/>
</svg>
