<svg width="130" height="129" viewBox="0 0 130 129" fill="none" xmlns="http://www.w3.org/2000/svg">
<path d="M48.5707 64.4999C48.5705 51.1588 53.8513 38.36 63.2591 28.9007C72.6669 19.4413 85.4366 14.0906 98.7775 14.0178C89.7513 8.3328 79.366 5.17181 68.7031 4.86407C58.0403 4.55633 47.4899 7.11308 38.1509 12.2681C28.8119 17.423 21.0258 24.9876 15.6036 34.1741C10.1813 43.3605 7.32126 53.8327 7.32126 64.4999C7.32126 75.1672 10.1813 85.6394 15.6036 94.8258C21.0258 104.012 28.8119 111.577 38.1509 116.732C47.4899 121.887 58.0403 124.444 68.7031 124.136C79.366 123.828 89.7513 120.667 98.7775 114.982C85.4366 114.909 72.6669 109.559 63.2591 100.099C53.8513 90.6399 48.5705 77.8411 48.5707 64.4999Z" stroke="black" stroke-width="1.86232" stroke-linecap="round" stroke-linejoin="round"/>
<path d="M97.7674 37.3313L106.12 53.9445H122.733L110.25 66.7945L114.197 85.1517L97.7674 75.9731L82.0721 85.1517L85.3764 66.7945L72.8935 53.9445H89.5067L97.7674 37.3313Z" stroke="black" stroke-width="2.79348" stroke-linecap="round" stroke-linejoin="round"/>
</svg>
