<svg width="136" height="137" viewBox="0 0 136 137" fill="none" xmlns="http://www.w3.org/2000/svg">
<path d="M35.3602 41.1045C35.3602 30.369 37.5702 28.635 50.9293 24.8752C64.2885 21.1153 68.0002 13.25 68.0002 13.25C68.0002 13.25 71.7147 21.1153 85.0738 24.8752C98.433 28.635 100.643 30.369 100.643 41.1045M29.6992 41.7987H68.003H106.301M31.351 102.5H68.0002H104.652M34.9295 102.622C34.9295 111.329 43.5117 115.638 52.0485 115.72C60.5853 115.802 68.0002 123.75 68.0002 123.75C68.0002 123.75 75.4178 115.802 83.9518 115.72C92.4858 115.638 101.074 111.329 101.074 102.622M39.732 102.661V42.3625M58.2818 42.2293V102.494M96.2712 102.661V42.3625M77.7185 42.2293V102.494" stroke="black" stroke-width="2.83333" stroke-linecap="round" stroke-linejoin="round"/>
</svg>
