<svg width="24" height="24" viewBox="0 0 24 24" fill="none" xmlns="http://www.w3.org/2000/svg">
<path d="M21.9998 10.0002V16.0002M5.99976 12.5002V16.0002C5.99976 16.7959 6.6319 17.559 7.75712 18.1216C8.88233 18.6842 10.4085 19.0002 11.9998 19.0002C13.5911 19.0002 15.1172 18.6842 16.2424 18.1216C17.3676 17.559 17.9998 16.7959 17.9998 16.0002V12.5002M21.4198 10.9224C21.5988 10.8434 21.7507 10.7136 21.8567 10.5492C21.9627 10.3847 22.0181 10.1927 22.0161 9.99709C22.0141 9.80144 21.9547 9.61068 21.8454 9.44844C21.736 9.2862 21.5814 9.15961 21.4008 9.08436L12.8298 5.18036C12.5692 5.06151 12.2862 5 11.9998 5C11.7134 5 11.4304 5.06151 11.1698 5.18036L2.5998 9.08036C2.42177 9.15833 2.27031 9.28649 2.16396 9.44917C2.05761 9.61185 2.00098 9.802 2.00098 9.99636C2.00098 10.1907 2.05761 10.3809 2.16396 10.5435C2.27031 10.7062 2.42177 10.8344 2.5998 10.9124L11.1698 14.8204C11.4304 14.9392 11.7134 15.0007 11.9998 15.0007C12.2862 15.0007 12.5692 14.9392 12.8298 14.8204L21.4198 10.9224Z" stroke="#556A76" stroke-width="1.5" stroke-linecap="round" stroke-linejoin="round"/>
</svg>
